<svg id="visual" viewBox="0 0 900 450" width="900" height="450" xmlns="http://www.w3.org/2000/svg" xmlns:xlink="http://www.w3.org/1999/xlink" version="1.1"><rect x="0" y="0" width="900" height="450" fill="#293029"></rect><path d="M0 339L13.7 336.7C27.3 334.3 54.7 329.7 82 332C109.3 334.3 136.7 343.7 163.8 346.5C191 349.3 218 345.7 245.2 340.3C272.3 335 299.7 328 327 329.5C354.3 331 381.7 341 409 340.7C436.3 340.3 463.7 329.7 491 324.3C518.3 319 545.7 319 573 322.8C600.3 326.7 627.7 334.3 654.8 335C682 335.7 709 329.3 736.2 328.8C763.3 328.3 790.7 333.7 818 338C845.3 342.3 872.7 345.7 886.3 347.3L900 349L900 451L886.3 451C872.7 451 845.3 451 818 451C790.7 451 763.3 451 736.2 451C709 451 682 451 654.8 451C627.7 451 600.3 451 573 451C545.7 451 518.3 451 491 451C463.7 451 436.3 451 409 451C381.7 451 354.3 451 327 451C299.7 451 272.3 451 245.2 451C218 451 191 451 163.8 451C136.7 451 109.3 451 82 451C54.7 451 27.3 451 13.7 451L0 451Z" fill="#000000"></path><path d="M0 375L13.7 368.2C27.3 361.3 54.7 347.7 82 345C109.3 342.3 136.7 350.7 163.8 350.2C191 349.7 218 340.3 245.2 336.7C272.3 333 299.7 335 327 336.3C354.3 337.7 381.7 338.3 409 343.8C436.3 349.3 463.7 359.7 491 366.7C518.3 373.7 545.7 377.3 573 379.5C600.3 381.7 627.7 382.3 654.8 377.5C682 372.7 709 362.3 736.2 356C763.3 349.7 790.7 347.3 818 351.8C845.3 356.3 872.7 367.7 886.3 373.3L900 379L900 451L886.3 451C872.7 451 845.3 451 818 451C790.7 451 763.3 451 736.2 451C709 451 682 451 654.8 451C627.7 451 600.3 451 573 451C545.7 451 518.3 451 491 451C463.7 451 436.3 451 409 451C381.7 451 354.3 451 327 451C299.7 451 272.3 451 245.2 451C218 451 191 451 163.8 451C136.7 451 109.3 451 82 451C54.7 451 27.3 451 13.7 451L0 451Z" fill="#003000"></path><path d="M0 371L13.7 374.5C27.3 378 54.7 385 82 385.3C109.3 385.7 136.7 379.3 163.8 376.2C191 373 218 373 245.2 373.8C272.3 374.7 299.7 376.3 327 379.5C354.3 382.7 381.7 387.3 409 384C436.3 380.7 463.7 369.3 491 363.8C518.3 358.3 545.7 358.7 573 357.8C600.3 357 627.7 355 654.8 355.8C682 356.7 709 360.3 736.2 367.2C763.3 374 790.7 384 818 388.3C845.3 392.7 872.7 391.3 886.3 390.7L900 390L900 451L886.3 451C872.7 451 845.3 451 818 451C790.7 451 763.3 451 736.2 451C709 451 682 451 654.8 451C627.7 451 600.3 451 573 451C545.7 451 518.3 451 491 451C463.7 451 436.3 451 409 451C381.7 451 354.3 451 327 451C299.7 451 272.3 451 245.2 451C218 451 191 451 163.8 451C136.7 451 109.3 451 82 451C54.7 451 27.3 451 13.7 451L0 451Z" fill="#005400"></path><path d="M0 380L13.7 383.2C27.3 386.3 54.7 392.7 82 392C109.3 391.3 136.7 383.7 163.8 384.3C191 385 218 394 245.2 394.2C272.3 394.3 299.7 385.7 327 381.3C354.3 377 381.7 377 409 379.8C436.3 382.7 463.7 388.3 491 392.8C518.3 397.3 545.7 400.7 573 402.8C600.3 405 627.7 406 654.8 405.5C682 405 709 403 736.2 401C763.3 399 790.7 397 818 393.5C845.3 390 872.7 385 886.3 382.5L900 380L900 451L886.3 451C872.7 451 845.3 451 818 451C790.7 451 763.3 451 736.2 451C709 451 682 451 654.8 451C627.7 451 600.3 451 573 451C545.7 451 518.3 451 491 451C463.7 451 436.3 451 409 451C381.7 451 354.3 451 327 451C299.7 451 272.3 451 245.2 451C218 451 191 451 163.8 451C136.7 451 109.3 451 82 451C54.7 451 27.3 451 13.7 451L0 451Z" fill="#1f7905"></path><path d="M0 408L13.7 408.2C27.3 408.3 54.7 408.7 82 408.2C109.3 407.7 136.7 406.3 163.8 407.3C191 408.3 218 411.7 245.2 411.8C272.3 412 299.7 409 327 408.3C354.3 407.7 381.7 409.3 409 410.2C436.3 411 463.7 411 491 410.7C518.3 410.3 545.7 409.7 573 409.5C600.3 409.3 627.7 409.7 654.8 408.3C682 407 709 404 736.2 405.2C763.3 406.3 790.7 411.7 818 414.5C845.3 417.3 872.7 417.7 886.3 417.8L900 418L900 451L886.3 451C872.7 451 845.3 451 818 451C790.7 451 763.3 451 736.2 451C709 451 682 451 654.8 451C627.7 451 600.3 451 573 451C545.7 451 518.3 451 491 451C463.7 451 436.3 451 409 451C381.7 451 354.3 451 327 451C299.7 451 272.3 451 245.2 451C218 451 191 451 163.8 451C136.7 451 109.3 451 82 451C54.7 451 27.3 451 13.7 451L0 451Z" fill="#3da00b"></path></svg>